<svg xmlns="http://www.w3.org/2000/svg" xmlns:xlink="http://www.w3.org/1999/xlink" preserveAspectRatio="xMidYMid" width="10" height="10" viewBox="0 0 10 10">
  <defs>
    <style>
      .cls-1 {
        fill: #dd4747;
        fill-rule: evenodd;
      }
    </style>
  </defs>
  <path d="M5.673,4.994 L9.859,0.808 C10.046,0.621 10.046,0.317 9.859,0.129 C9.671,-0.058 9.367,-0.058 9.180,0.129 L4.994,4.315 L0.808,0.130 C0.621,-0.057 0.317,-0.057 0.129,0.130 C-0.058,0.318 -0.058,0.621 0.129,0.809 L4.315,4.995 L0.130,9.180 C-0.057,9.367 -0.057,9.671 0.130,9.859 C0.224,9.952 0.346,10.000 0.469,10.000 C0.592,10.000 0.715,9.953 0.808,9.859 L4.994,5.673 L9.180,9.859 C9.274,9.952 9.396,10.000 9.519,10.000 C9.642,10.000 9.765,9.953 9.858,9.859 C10.045,9.671 10.045,9.367 9.858,9.180 L5.673,4.994 Z" class="cls-1"/>
</svg>
